# Blender v2.76 (sub 0) OBJ File: ''
# www.blender.org
o Cube
v -1.000000 -1.000000 1.000000
v -1.000000 -1.000000 -1.000000
v 1.000000 -1.000000 -1.000000
v 1.000000 -1.000000 1.000000
v -1.000000 1.000000 0.999999
v -0.999999 1.000000 -1.000001
v 1.000000 1.000000 -1.000000
v 1.000000 1.000000 1.000000
vt 0.000100 0.999900
vt 0.000100 0.000100
vt 0.999900 0.000100
vt 1.000000 0.000000
vt 1.000000 1.000000
vt 0.000000 1.000000
vt 0.999900 0.999900
vt 0.000000 0.000000
vn 0.000000 -1.000000 -0.000000
vn 0.000000 1.000000 0.000000
vn -1.000000 0.000000 -0.000000
vn 0.000000 0.000000 -1.000000
vn 1.000000 -0.000000 0.000000
vn -0.000000 0.000000 1.000000
s off
f 2/1/1 3/2/1 4/3/1
f 8/1/2 7/2/2 6/3/2
f 5/4/3 6/5/3 2/6/3
f 6/7/4 7/1/4 3/2/4
f 3/1/5 7/2/5 8/3/5
f 1/4/6 4/5/6 8/6/6
f 1/7/1 2/1/1 4/3/1
f 5/7/2 8/1/2 6/3/2
f 1/8/3 5/4/3 2/6/3
f 2/3/4 6/7/4 3/2/4
f 4/7/5 3/1/5 8/3/5
f 5/8/6 1/4/6 8/6/6
